Coordinates
version=1
nRows=20
nColumns=38
inDegrees=no

Units are S.I. units (second, meters, Newtons, ...)
If the header above contains a line with 'inDegrees', this indicates whether rotational values are in degrees (yes) or radians (no).

endheader
time	pelvis_tilt	pelvis_list	pelvis_rotation	pelvis_tx	pelvis_ty	pelvis_tz	hip_flexion_r	hip_adduction_r	hip_rotation_r	knee_angle_r	ankle_angle_r	subtalar_angle_r	mtp_angle_r	hip_flexion_l	hip_adduction_l	hip_rotation_l	knee_angle_l	ankle_angle_l	subtalar_angle_l	mtp_angle_l	lumbar_extension	lumbar_bending	lumbar_rotation	arm_flex_r	arm_add_r	arm_rot_r	elbow_flex_r	pro_sup_r	wrist_flex_r	wrist_dev_r	arm_flex_l	arm_add_l	arm_rot_l	elbow_flex_l	pro_sup_l	wrist_flex_l	wrist_dev_l
11.42	-2.34503	1.37335	0.877996	0.866803	-0.175832	1.04948	0.497893	0.14638	0.146354	0.422372	-0.318558	0	0	-0.0220848	-0.168042	-0.490755	0.426677	-0.138468	0	0	-0.363747	0.181825	-0.0767305	0.889174	-0.577604	1.12632	0.926523	0.72028	0	0	0.232815	-0.340989	0.126578	1.25163	1.50647	0	0
11.43	-2.36015	1.37325	0.893886	0.866641	-0.180248	1.04888	0.4986	0.142681	0.148234	0.405758	-0.332688	0	0	-0.0243067	-0.1656	-0.488735	0.425692	-0.139409	0	0	-0.358821	0.179455	-0.0782854	0.881235	-0.584784	1.13127	0.938584	0.715726	0	0	0.218021	-0.337168	0.117882	1.25815	1.51112	0	0
11.44	-2.37592	1.37352	0.910888	0.866496	-0.184757	1.04829	0.498963	0.138297	0.149053	0.391214	-0.344432	0	0	-0.0265389	-0.162677	-0.486168	0.424796	-0.140625	0	0	-0.353954	0.176752	-0.0800143	0.872288	-0.591896	1.13462	0.950258	0.713199	0	0	0.203707	-0.333567	0.109851	1.26418	1.51655	0	0
11.45	-2.39254	1.37384	0.929303	0.866384	-0.189349	1.04767	0.499117	0.133375	0.14897	0.378667	-0.352837	0	0	-0.0286773	-0.159608	-0.483064	0.423897	-0.141927	0	0	-0.348719	0.173848	-0.082083	0.862187	-0.598823	1.13627	0.961536	0.713514	0	0	0.189983	-0.330458	0.102927	1.26943	1.52285	0	0
11.46	-2.4086	1.37441	0.947593	0.866284	-0.194036	1.04706	0.498949	0.128306	0.148184	0.368669	-0.356979	0	0	-0.0310027	-0.156645	-0.479973	0.423462	-0.142985	0	0	-0.343282	0.170723	-0.0843959	0.850424	-0.605209	1.13529	0.972196	0.717335	0	0	0.177076	-0.328385	0.0979935	1.27374	1.52809	0	0
11.47	-2.4924	1.36844	1.03505	0.865729	-0.199451	1.0468	0.509767	0.115309	0.150227	0.355963	-0.368801	0	0	-0.0416911	-0.108554	-0.370212	0.336995	-0.161631	0	0	-0.318209	0.139788	-0.102355	0.60271	-0.42537	0.522782	0.89658	1.27621	0	0	0.151302	-0.331899	0.0792891	1.28572	1.54982	0	0
11.48	-2.48844	1.3655	1.0335	0.865835	-0.204358	1.04508	0.510509	0.115281	0.148142	0.349758	-0.373883	0	0	-0.0225603	-0.144559	-0.45903	0.414645	-0.150847	0	0	-0.315291	0.140579	-0.101208	0.572109	-0.427512	0.484956	0.924	1.30546	0	0	0.136182	-0.329729	0.0738871	1.29986	1.55706	0	0
11.49	-2.49681	1.36747	1.04567	0.865839	-0.209274	1.04469	0.506727	0.110541	0.146376	0.343738	-0.376554	0	0	-0.0277869	-0.140717	-0.450352	0.411414	-0.151839	0	0	-0.318147	0.136202	-0.101284	0.541708	-0.428032	0.446945	0.951263	1.32839	0	0	0.124579	-0.329842	0.0709933	1.31247	1.5635	0	0
11.5	-2.5043	1.37084	1.05743	0.865801	-0.214296	1.04459	0.50099	0.105491	0.143914	0.33956	-0.375821	0	0	-0.0377862	-0.130941	-0.426187	0.395505	-0.155272	0	0	-0.322803	0.131514	-0.100997	0.511606	-0.429411	0.41206	0.979088	1.34787	0	0	0.114466	-0.330837	0.0697502	1.324	1.5708	0	0
11.51	-2.50649	1.37445	1.06394	0.865732	-0.219424	1.04453	0.493962	0.101072	0.140414	0.337464	-0.373558	0	0	-0.0478898	-0.124275	-0.40703	0.383607	-0.158891	0	0	-0.328165	0.127976	-0.0997315	0.482062	-0.432289	0.381107	1.00719	1.36368	0	0	0.105464	-0.33278	0.0710945	1.33474	1.5708	0	0
11.52	-2.50586	1.37815	1.06759	0.865603	-0.224673	1.04448	0.486179	0.0971477	0.136794	0.337	-0.371165	0	0	-0.0576784	-0.119222	-0.390338	0.374258	-0.162176	0	0	-0.333615	0.125069	-0.0983124	0.453949	-0.436071	0.355323	1.03424	1.37493	0	0	0.0964141	-0.335118	0.0727259	1.34499	1.5708	0	0
11.53	-2.50463	1.38308	1.07065	0.865394	-0.230042	1.04466	0.476559	0.092881	0.133095	0.337744	-0.367818	0	0	-0.0719671	-0.110026	-0.362183	0.354757	-0.167764	0	0	-0.340694	0.121469	-0.0956138	0.424846	-0.440332	0.329309	1.06185	1.38809	0	0	0.0890318	-0.338232	0.0766298	1.35451	1.5708	0	0
11.54	-2.499	1.38656	1.06887	0.865116	-0.235534	1.04438	0.467791	0.0904334	0.129191	0.340837	-0.361754	0	0	-0.0778555	-0.113052	-0.36392	0.361407	-0.169468	0	0	-0.345788	0.119571	-0.093604	0.39848	-0.445653	0.310882	1.08723	1.39815	0	0	0.0791257	-0.341265	0.0787167	1.36502	1.5708	0	0
11.55	-2.49285	1.38983	1.06622	0.864737	-0.241129	1.04401	0.458256	0.0885363	0.125494	0.343841	-0.352102	0	0	-0.0828575	-0.117435	-0.368577	0.370964	-0.170027	0	0	-0.3504	0.118095	-0.0908554	0.372011	-0.451638	0.293782	1.11258	1.40286	0	0	0.0693907	-0.344424	0.081589	1.37478	1.5708	0	0
11.56	-2.48824	1.39294	1.06469	0.86422	-0.246823	1.04363	0.447853	0.086951	0.122337	0.344964	-0.340889	0	0	-0.0879293	-0.121065	-0.37156	0.379211	-0.170851	0	0	-0.354255	0.116449	-0.0879703	0.346411	-0.457895	0.280104	1.13616	1.40326	0	0	0.0593319	-0.34791	0.0847104	1.38381	1.5708	0	0
11.57	-2.48346	1.39691	1.063	0.863582	-0.252592	1.04351	0.435338	0.0852994	0.118996	0.342699	-0.327861	0	0	-0.0959912	-0.120489	-0.362903	0.379017	-0.174109	0	0	-0.359591	0.113966	-0.0826768	0.318614	-0.46529	0.264293	1.16178	1.38732	0	0	0.0522159	-0.352172	0.0916168	1.39129	1.5708	0	0
11.58	-2.47832	1.40049	1.06076	0.862759	-0.258452	1.04348	0.422747	0.0845626	0.11452	0.337841	-0.321505	0	0	-0.10394	-0.119715	-0.351599	0.377764	-0.177116	0	0	-0.36351	0.111736	-0.081154	0.296843	-0.470344	0.257663	1.18043	1.37584	0	0	0.0410171	-0.356893	0.0936254	1.3995	1.5708	0	0
11.59	-2.47231	1.40329	1.05731	0.861752	-0.264382	1.04346	0.411237	0.0850607	0.108241	0.332489	-0.316851	0	0	-0.110484	-0.120445	-0.341775	0.378873	-0.179372	0	0	-0.366129	0.109841	-0.0803338	0.277311	-0.474587	0.25422	1.19607	1.36403	0	0	0.0288152	-0.362213	0.095106	1.40706	1.5708	0	0
11.6	-2.4627	1.40564	1.05008	0.860568	-0.270344	1.0435	0.401167	0.0866326	0.0987341	0.329362	-0.311935	0	0	-0.114738	-0.124486	-0.338071	0.386027	-0.181217	0	0	-0.368313	0.108522	-0.0797607	0.259824	-0.479054	0.2543	1.2097	1.3446	0	0	0.0161013	-0.368012	0.0962181	1.41428	1.5708	0	0
11.61	-2.45126	1.40685	1.04066	0.859216	-0.276304	1.04351	0.391802	0.0892332	0.0873171	0.325198	-0.31004	0	0	-0.114325	-0.133721	-0.345522	0.403828	-0.183963	0	0	-0.37008	0.107725	-0.0772272	0.239349	-0.480327	0.246854	1.22248	1.36109	0	0	0.00462951	-0.374268	0.0992761	1.42074	1.5708	0	0
